<svg width="40" height="40" viewBox="0 0 40 40" fill="none" xmlns="http://www.w3.org/2000/svg">
<path d="M3.33667 20.0034C3.33861 28.2023 9.30067 35.1834 17.3983 36.4684V24.82H13.17V20.0034H17.4033V16.3367C17.2141 14.5993 17.8075 12.8677 19.0227 11.6116C20.2379 10.3555 21.9489 9.70506 23.6917 9.8367C24.9426 9.8569 26.1903 9.96831 27.425 10.17V14.2684H25.3183C24.5931 14.1734 23.8639 14.4129 23.3363 14.9195C22.8086 15.4261 22.5396 16.1448 22.605 16.8734V20.0034H27.2233L26.485 24.8217H22.605V36.4684C31.3625 35.0844 37.5035 27.0863 36.5792 18.2685C35.6549 9.45065 27.9888 2.89991 19.1347 3.362C10.2806 3.82408 3.33808 11.1372 3.33667 20.0034Z" fill="#3B49CF"/>
</svg>
