<svg width="24" height="25" viewBox="0 0 24 25" fill="none" xmlns="http://www.w3.org/2000/svg">
<path d="M12.002 21.6772C9.54201 21.6772 9.25201 21.6639 8.29201 21.6211C7.54339 21.596 6.80445 21.4409 6.10701 21.1624C4.90033 20.6838 3.94615 19.7109 3.47701 18.4808C3.21432 17.7674 3.07263 17.0136 3.05801 16.2517C3.00201 15.2752 3.00201 14.9552 3.00201 12.4672C3.00201 9.95271 3.01501 9.65917 3.05801 8.68579C3.07295 7.92494 3.21464 7.1722 3.47701 6.45974C3.94565 5.22801 4.90137 4.25426 6.11001 3.77707C6.80866 3.50819 7.54736 3.3634 8.29401 3.34898C9.24901 3.29395 9.56301 3.29395 12.002 3.29395C14.482 3.29395 14.767 3.3072 15.712 3.34898C16.4606 3.36353 17.2013 3.5083 17.902 3.77707C19.1103 4.2548 20.0659 5.22836 20.535 6.45974C20.8021 7.18259 20.9446 7.94708 20.956 8.71942C21.012 9.69586 21.012 10.0149 21.012 12.5019C21.012 14.9888 20.998 15.315 20.956 16.2802C20.9411 17.0428 20.7991 17.7973 20.536 18.5114C20.0657 19.7423 19.1101 20.7156 17.902 21.194C17.2023 21.4613 16.4631 21.6057 15.716 21.6211C14.761 21.6772 14.448 21.6772 12.002 21.6772ZM11.968 4.90742C9.52201 4.90742 9.26801 4.91965 8.31301 4.96348C7.743 4.97118 7.17849 5.07839 6.64401 5.28047C5.85477 5.58829 5.23024 6.22225 4.92501 7.02542C4.72523 7.57612 4.62002 8.15779 4.61401 8.7449C4.56101 9.73256 4.56101 9.99145 4.56101 12.4672C4.56101 14.9134 4.57001 15.21 4.61401 16.1916C4.62297 16.7727 4.72811 17.3482 4.92501 17.8937C5.23069 18.6964 5.85511 19.3298 6.64401 19.6376C7.17813 19.8411 7.74287 19.9483 8.31301 19.9546C9.28101 20.0117 9.53601 20.0117 11.968 20.0117C14.421 20.0117 14.675 19.9995 15.622 19.9546C16.1924 19.9476 16.7574 19.8403 17.292 19.6376C18.0765 19.3272 18.6969 18.6951 19.002 17.8957C19.2014 17.3446 19.3066 16.7626 19.313 16.1752H19.324C19.367 15.2008 19.367 14.9409 19.367 12.4509C19.367 9.96087 19.356 9.69892 19.313 8.72554C19.304 8.14502 19.1989 7.57023 19.002 7.02542C18.6976 6.22488 18.0771 5.59164 17.292 5.28047C16.7575 5.07737 16.1925 4.97013 15.622 4.96348C14.655 4.90742 14.402 4.90742 11.968 4.90742ZM12.002 17.1751C10.132 17.1764 8.44543 16.0292 7.72888 14.2687C7.01232 12.5082 7.40692 10.481 8.72865 9.13269C10.0504 7.78435 12.0389 7.3804 13.7668 8.10923C15.4947 8.83805 16.6216 10.5561 16.622 12.4621C16.6193 15.0623 14.5531 17.1701 12.002 17.1751ZM12.002 9.40232C10.3452 9.40232 9.00201 10.7713 9.00201 12.4601C9.00201 14.1488 10.3452 15.5178 12.002 15.5178C13.6589 15.5178 15.002 14.1488 15.002 12.4601C14.9982 10.773 13.6573 9.40624 12.002 9.40232ZM16.802 8.6756C16.2074 8.67334 15.7269 8.18084 15.728 7.57481C15.7291 6.96878 16.2114 6.47809 16.806 6.47809C17.4006 6.47809 17.8829 6.96878 17.884 7.5748C17.8843 7.86719 17.7703 8.14764 17.5673 8.3542C17.3642 8.56076 17.0889 8.67641 16.802 8.6756Z" fill="#EF168B"/>
</svg>
