<svg width="32" height="33" viewBox="0 0 32 33" fill="none" xmlns="http://www.w3.org/2000/svg">
<path d="M26.66 9.32C27.8553 8.59169 28.7496 7.44489 29.176 6.09372C28.0529 6.77296 26.8241 7.25143 25.5427 7.50845C23.7661 5.59297 20.9514 5.12683 18.6712 6.37049C16.3911 7.61416 15.21 10.2597 15.788 12.8289C11.1875 12.5935 6.90131 10.3785 3.99602 6.73517C2.47981 9.40075 3.25462 12.8083 5.76669 14.5223C4.8583 14.4925 3.97006 14.2418 3.17602 13.7911C3.17602 13.8156 3.17602 13.84 3.17602 13.8645C3.17655 16.6412 5.09652 19.0329 7.76669 19.5832C6.92411 19.8168 6.0403 19.8512 5.18269 19.6838C5.93362 22.0583 8.08076 23.6851 10.528 23.7336C8.50113 25.3551 5.99799 26.2344 3.42135 26.2301C2.96465 26.2308 2.5083 26.204 2.05469 26.1499C4.67121 27.8636 7.71651 28.7733 10.8267 28.7701C15.1537 28.8004 19.3121 27.0617 22.3717 23.9429C25.4313 20.8241 27.1368 16.5856 27.1067 12.1753C27.1067 11.9225 27.1009 11.6711 27.0894 11.421C28.21 10.5956 29.1771 9.57297 29.9454 8.40131C28.9014 8.87297 27.794 9.18263 26.66 9.32Z" fill="#12BCF2"/>
</svg>
