<svg width="40" height="40" viewBox="0 0 40 40" fill="none" xmlns="http://www.w3.org/2000/svg">
<path d="M20.01 31.6867H19.9767C19.8733 31.6867 9.53499 31.6667 6.92665 30.9584C5.49236 30.572 4.37224 29.4512 3.98665 28.0167C3.51762 25.3706 3.29112 22.6873 3.30999 20C3.29787 17.3084 3.53049 14.6212 4.00499 11.9717C4.40117 10.5359 5.51637 9.40996 6.94832 9.00004C9.48499 8.33337 19.5383 8.33337 19.965 8.33337H20C20.105 8.33337 30.47 8.35337 33.0517 9.06171C34.4829 9.45006 35.6008 10.5685 35.9883 12C36.4723 14.6559 36.6994 17.3523 36.6667 20.0517C36.6783 22.7401 36.4452 25.424 35.97 28.07C35.5794 29.5028 34.4586 30.6211 33.025 31.0084C30.4917 31.68 20.4367 31.6867 20.01 31.6867ZM16.6767 15.0084L16.6683 25.0084L25.355 20.0084L16.6767 15.0084Z" fill="#E54126"/>
</svg>
